<?xml version="1.0" encoding="UTF-8"?>
<svg id="Capa_1" xmlns="http://www.w3.org/2000/svg" version="1.1" viewBox="0 0 573.7 573.7">
  <!-- Generator: Adobe Illustrator 29.1.0, SVG Export Plug-In . SVG Version: 2.1.0 Build 142)  -->
  <defs>
    <style>
      .st0 {
        fill: #29c8e2;
      }
    </style>
  </defs>
  <path class="st0" d="M107.6,396.3h0s.5,0,.5,0c.7,0,1.4,0,2.1,0s1.4,0,2.1,0h144v-101.5h-103.4l158.9-199.1v143.6h103.4l-125.2,156.9h165.9c.7,0,1.4,0,2.1,0s1.4,0,2.1,0h4.2c57.6-3.4,103.3-51.7,103.3-110.8s-45.7-107.3-103.3-110.6v-.2h-5.6s0,0,0,0c-8.1-86.9-83.1-155.1-174.5-155.1S117.7,87.8,109.5,174.8c0,0,0,0,0,0h-1.9C48.3,176.2.6,225.3.6,285.6s47.7,109.4,107.1,110.8Z"/>
  <path class="st0" d="M44.3,485.8c-7.4,0-13.8,2.9-19,8.6v-6.7H-.1v64.2h25.4v-31.8c0-3.7.8-6.6,2.5-8.6,1.6-2,3.9-3,6.8-3s4.3.8,5.8,2.5c1.5,1.6,2.3,3.8,2.3,6.5v34.4h25.4v-39.9c0-8.1-2.2-14.5-6.5-19.2-4.3-4.7-10.1-7-17.3-7Z"/>
  <path class="st0" d="M120.6,519.6c0,3.7-.8,6.6-2.5,8.6-1.6,2-3.9,3-6.8,3s-4.3-.8-5.8-2.5c-1.5-1.6-2.3-3.8-2.3-6.5v-34.4h-25.4v39.9c0,8.1,2.2,14.5,6.5,19.2,4.3,4.7,10.1,7,17.3,7s13.8-2.9,19-8.6v6.7h25.4v-64.2h-25.4v31.8Z"/>
  <polygon class="st0" points="206.4 487.7 194 521.1 181.6 487.7 155.1 487.7 181.5 551.9 206.7 551.9 233 487.7 206.4 487.7"/>
  <path class="st0" d="M294.3,495.4c-7-6.3-15.5-9.5-25.6-9.5s-18.7,3.2-25.7,9.5c-7,6.3-10.5,14.5-10.5,24.4s3.5,18.1,10.5,24.4c7,6.3,15.6,9.5,25.7,9.5s18.6-3.2,25.6-9.5c7-6.3,10.5-14.5,10.5-24.4s-3.5-18.1-10.5-24.4ZM277,528.9c-2.2,2.5-5,3.7-8.3,3.7s-6.2-1.2-8.4-3.7c-2.2-2.5-3.4-5.5-3.4-9.1s1.1-6.7,3.4-9.2c2.2-2.5,5-3.7,8.4-3.7s6.1,1.2,8.3,3.7c2.2,2.5,3.4,5.6,3.4,9.2s-1.1,6.6-3.4,9.1Z"/>
  <rect class="st0" x="312.2" y="460.7" width="25.4" height="91.2"/>
  <path class="st0" d="M359.7,539.5c-1.9,0-3.4.6-4.7,1.9-1.3,1.3-1.9,2.8-1.9,4.6s.6,3.3,1.9,4.5c1.3,1.2,2.8,1.8,4.7,1.8s3.4-.6,4.7-1.8c1.3-1.2,1.9-2.7,1.9-4.5s-.6-3.3-1.9-4.6c-1.3-1.3-2.8-1.9-4.7-1.9Z"/>
  <path class="st0" d="M408.7,496.8c4.8,0,9.1,1.3,12.8,3.9s6.2,6.2,7.6,10.8l9.2-2.8c-1.9-6.3-5.5-11.4-11-15.1-5.5-3.8-11.7-5.6-18.6-5.6s-16.7,3.1-23,9.2c-6.3,6.1-9.5,14-9.5,23.6s3.2,17.6,9.5,23.7c6.3,6.1,14,9.1,23,9.1s13.2-1.9,18.7-5.6c5.5-3.8,9.1-8.8,10.8-15l-8.9-2.4c-1.4,4.6-4,8-7.8,10.4-3.8,2.4-8,3.6-12.9,3.6s-12.1-2.2-16.5-6.6c-4.4-4.4-6.6-10.1-6.6-17.2s2.2-12.7,6.7-17.2c4.5-4.5,10-6.7,16.5-6.7Z"/>
  <path class="st0" d="M504.4,499.5c-5.8-7.7-14.1-11.5-24.8-11.5s-15.8,3.1-22,9.2c-6.1,6.1-9.2,14-9.2,23.6s3.1,17.5,9.2,23.6c6.1,6.1,13.4,9.2,22,9.2s19-3.8,24.8-11.5v9.9h9.6v-62.4h-9.6v10ZM497.4,538.2c-4.7,4.5-10.1,6.8-16.3,6.8s-12.1-2.2-16.6-6.6-6.7-10.3-6.7-17.5,2.2-13.1,6.7-17.6c4.5-4.5,10-6.7,16.6-6.7s11.6,2.3,16.3,6.8c4.7,4.5,7,10.4,7,17.5s-2.3,12.9-7,17.4Z"/>
  <path class="st0" d="M570.6,540.6c-3.5,2.5-7.1,3.8-10.6,3.8s-6.4-1.1-8.4-3.4c-2.1-2.2-3.1-5.3-3.1-9.3v-34.2h22.3v-8.1h-22.3v-19.9h-9.7v19.9h-13.5v8.1h13.5v34.8c0,6.8,1.9,12,5.6,15.6s8.7,5.5,15.1,5.5,9.7-1.6,14.4-4.9l-3.2-8Z"/>
</svg>