<?xml version="1.0" encoding="UTF-8"?>
<svg id="Capa_2" data-name="Capa 2" xmlns="http://www.w3.org/2000/svg" viewBox="0 0 451.11 83.95">
  <defs>
    <style>
      .cls-1 {
        fill: #29c8e2;
      }
    </style>
  </defs>
  <g id="Capa_1-2" data-name="Capa 1">
    <path class="cls-1" d="M103.32,34.6v-.04h-1.26s0,0,0,0C100.24,15.18,83.53,0,63.17,0S26.1,15.18,24.29,34.56c0,0,0,0,0,0h-.42c-13.23.32-23.86,11.25-23.86,24.69s10.63,24.38,23.86,24.68h0s.11,0,.11,0c.15,0,.31.01.46.01s.31,0,.46-.01h32.1v-22.61h-23.03l35.41-44.38v32.01h23.03l-27.91,34.97h36.97c.15,0,.31.01.46.01s.31,0,.46-.01h.94v-.03c12.84-.74,23.02-11.49,23.02-24.65s-10.19-23.92-23.02-24.65Z"/>
    <g>
      <g>
        <path class="cls-1" d="M187.59,29.11c2.21,2.41,3.32,5.7,3.32,9.87v20.52h-13.09v-17.72c0-1.39-.39-2.51-1.17-3.36-.78-.85-1.78-1.27-3-1.27-1.48,0-2.64.52-3.49,1.56-.85,1.04-1.27,2.52-1.27,4.43v16.35h-13.09V26.47h13.09v3.45c2.69-2.95,5.95-4.43,9.77-4.43s6.71,1.21,8.93,3.62Z"/>
        <path class="cls-1" d="M231.04,59.57h-13.09v-3.45c-2.69,2.95-5.95,4.43-9.77,4.43s-6.71-1.21-8.92-3.62c-2.22-2.41-3.32-5.7-3.32-9.87v-20.52h13.09v17.72c0,1.39.39,2.51,1.17,3.36.78.85,1.78,1.27,3,1.27,1.48,0,2.64-.52,3.49-1.56.85-1.04,1.27-2.52,1.27-4.43v-16.35h13.09v33.03Z"/>
        <path class="cls-1" d="M262.21,59.5h-12.96l-13.55-33.03h13.62l6.38,17.2,6.38-17.2h13.68l-13.55,33.03Z"/>
        <path class="cls-1" d="M307.29,30.45c3.61,3.26,5.41,7.45,5.41,12.57s-1.8,9.32-5.41,12.57-7.99,4.89-13.16,4.89-9.62-1.63-13.22-4.89-5.41-7.45-5.41-12.57,1.8-9.32,5.41-12.57c3.61-3.26,8.01-4.89,13.22-4.89s9.55,1.63,13.16,4.89ZM298.4,47.68c1.15-1.28,1.73-2.83,1.73-4.66s-.58-3.44-1.73-4.72c-1.15-1.28-2.57-1.92-4.27-1.92s-3.18.64-4.33,1.92c-1.15,1.28-1.73,2.86-1.73,4.72s.57,3.38,1.73,4.66c1.15,1.28,2.59,1.92,4.33,1.92s3.12-.64,4.27-1.92Z"/>
        <path class="cls-1" d="M316.54,59.5V12.59h13.09v46.91h-13.09Z"/>
      </g>
      <g>
        <path class="cls-1" d="M343.37,54.1c.65.65.98,1.43.98,2.34s-.33,1.68-.98,2.31-1.46.94-2.41.94-1.76-.31-2.41-.94-.98-1.4-.98-2.31.33-1.69.98-2.34,1.45-.98,2.41-.98,1.76.33,2.41.98Z"/>
        <path class="cls-1" d="M372.78,53.87c1.93-1.24,3.27-3.03,4.01-5.37l4.56,1.24c-.87,3.21-2.71,5.79-5.54,7.72s-6.04,2.9-9.64,2.9c-4.65,0-8.6-1.56-11.86-4.69-3.26-3.13-4.89-7.19-4.89-12.18s1.63-9,4.89-12.15,7.21-4.72,11.86-4.72c3.56,0,6.75.97,9.58,2.9,2.82,1.93,4.71,4.53,5.67,7.78l-4.75,1.43c-.69-2.39-2-4.25-3.91-5.57-1.91-1.33-4.1-1.99-6.58-1.99-3.34,0-6.17,1.15-8.47,3.45s-3.45,5.25-3.45,8.86,1.14,6.6,3.42,8.86c2.28,2.26,5.11,3.39,8.5,3.39,2.48,0,4.68-.62,6.61-1.86Z"/>
        <path class="cls-1" d="M420.36,59.5h-4.95v-5.08c-3,3.95-7.25,5.93-12.77,5.93-4.39,0-8.15-1.57-11.3-4.72s-4.72-7.2-4.72-12.15,1.57-9,4.72-12.15,6.92-4.72,11.3-4.72c5.51,0,9.77,1.98,12.77,5.93v-5.15h4.95v32.11ZM411.8,52.43c2.41-2.32,3.62-5.31,3.62-8.96s-1.21-6.7-3.62-9.02c-2.41-2.32-5.2-3.49-8.37-3.49-3.39,0-6.23,1.15-8.53,3.45s-3.45,5.32-3.45,9.05,1.15,6.74,3.45,9.02c2.3,2.28,5.15,3.42,8.53,3.42,3.17,0,5.96-1.16,8.37-3.48Z"/>
        <path class="cls-1" d="M451.11,57.81c-2.43,1.69-4.91,2.54-7.43,2.54-3.26,0-5.84-.94-7.75-2.83-1.91-1.89-2.87-4.57-2.87-8.04v-17.91h-6.97v-4.17h6.97v-10.23h5.02v10.23h11.46v4.17h-11.46v17.59c0,2.04.53,3.64,1.6,4.79,1.06,1.15,2.51,1.73,4.33,1.73s3.65-.65,5.47-1.96l1.63,4.1Z"/>
      </g>
    </g>
  </g>
</svg>